# xmcd
#
# Track frame offsets: 
#        150
#        31762
#        52287
#        68292
#        80015
#        98892
#        114075
#        130590
#
# Disc length: 1952 seconds
#
# Revision: 1
# Processed by: cddbd v1.5.2PL0 Copyright (c) Steve Scherf et al.
# Submitted via: ExactAudioCopy v0.95b4
#
DISCID=5b079e08
DTITLE=Al Smith - Midnight Special
DYEAR=1960
DGENRE=Jazz
TTITLE0=Five Long Years
TTITLE1=You're a sweetheart
TTITLE2=Baby don't worry 'bout me
TTITLE3=Ride on midnight special
TTITLE4=The Bells
TTITLE5=Goin' to Alabama
TTITLE6=I'll never let you go
TTITLE7=I can't make it by myself
EXTD=
EXTT0=
EXTT1=
EXTT2=
EXTT3=
EXTT4=
EXTT5=
EXTT6=
EXTT7=
PLAYORDER=
